<svg width="66" height="50" viewBox="0 0 66 50" fill="none" xmlns="http://www.w3.org/2000/svg">
<path d="M38.5376 47.5L6.68158 47.5C5.44284 47.5 4.43671 46.6116 4.27638 45.4438C3.56091 40.2325 2.5 31.4003 2.5 25C2.5 18.5997 3.56091 9.7675 4.27638 4.55619C4.43671 3.38837 5.44284 2.5 6.68158 2.5L38.5376 2.5C40.6304 2.5 42.628 3.3744 44.0477 4.91192L61.0311 23.304C61.9154 24.2617 61.9154 25.7383 61.0311 26.696L44.0477 45.0881C42.628 46.6256 40.6304 47.5 38.5376 47.5Z" stroke="white" stroke-width="5"/>
<path d="M27.0015 14.3079L17.6754 23.5006C17.4704 23.701 17.2998 23.9917 17.1812 24.3429C17.0625 24.6942 17 25.0934 17 25.5C17 25.9065 17.0625 26.3058 17.1812 26.657C17.2998 27.0083 17.4704 27.2989 17.6754 27.4994L27.0015 36.6921C27.2049 36.8947 27.4358 37.0009 27.6707 37C27.9055 36.9991 28.1361 36.8911 28.339 36.6869C28.5419 36.4828 28.7099 36.1897 28.826 35.8375C28.942 35.4852 29.0021 35.0863 28.9999 34.6812L28.9999 16.2958C28.9997 15.8926 28.938 15.4966 28.8209 15.1476C28.7039 14.7985 28.5357 14.5087 28.3332 14.3073C28.1307 14.1059 27.9011 13.9999 27.6673 14C27.4336 14.0001 27.2039 14.1063 27.0015 14.3079Z" stroke="white" stroke-width="3.33333" stroke-linecap="round" stroke-linejoin="round"/>
</svg>
