<svg width="66" height="50" viewBox="0 0 66 50" fill="none" xmlns="http://www.w3.org/2000/svg">
<path d="M27.4624 2.5H59.3184C60.5572 2.5 61.5633 3.38837 61.7236 4.55619C62.4391 9.76751 63.5 18.5997 63.5 25C63.5 31.4003 62.4391 40.2325 61.7236 45.4438C61.5633 46.6116 60.5572 47.5 59.3184 47.5H27.4624C25.3696 47.5 23.372 46.6256 21.9523 45.0881L4.96895 26.696C4.08456 25.7383 4.08456 24.2617 4.96895 23.304L21.9523 4.91192C23.372 3.3744 25.3696 2.5 27.4624 2.5Z" stroke="white" stroke-width="5"/>
<path d="M38.9985 35.6921L48.3246 26.4994C48.5296 26.299 48.7002 26.0083 48.8188 25.6571C48.9375 25.3058 49 24.9066 49 24.5C49 24.0935 48.9375 23.6942 48.8188 23.343C48.7002 22.9917 48.5296 22.7011 48.3246 22.5006L38.9985 13.3079C38.7951 13.1053 38.5642 12.9991 38.3293 13C38.0945 13.0009 37.8639 13.1089 37.661 13.3131C37.4581 13.5172 37.2901 13.8103 37.174 14.1625C37.058 14.5148 36.9979 14.9137 37.0001 15.3188V33.7042C37.0003 34.1074 37.062 34.5034 37.1791 34.8524C37.2961 35.2015 37.4643 35.4913 37.6668 35.6927C37.8693 35.8941 38.0989 36.0001 38.3327 36C38.5664 35.9999 38.7961 35.8937 38.9985 35.6921Z" stroke="white" stroke-width="3.33333" stroke-linecap="round" stroke-linejoin="round"/>
</svg>
